
nColumns=19
nRows=62
DataType=double
version=3
OpenSimVersion=4.4-2022-10-11-798caa840
endheader
time	ground_force_calcn_r_vx	ground_force_calcn_r_vy	ground_force_calcn_r_vz	ground_force_calcn_r_px	ground_force_calcn_r_py	ground_force_calcn_r_pz	ground_force_calcn_r_mx	ground_force_calcn_r_my	ground_force_calcn_r_mz	ground_force_calcn_l_vx	ground_force_calcn_l_vy	ground_force_calcn_l_vz	ground_force_calcn_l_px	ground_force_calcn_l_py	ground_force_calcn_l_pz	ground_force_calcn_l_mx	ground_force_calcn_l_my	ground_force_calcn_l_mz
6.75	-8.727880000000001	516.134	-64.3541	-0.246501	0	-0.337106	0.0155714	-0.920836	0.114814	-3.75092	130.148	18.4748	-0.262348	0	-0.906704	-0.0307079	1.06549	0.151248
6.76	-8.35905	500.301	-62.494	-0.246051	0	-0.337049	0.0140425	-0.840461	0.104984	-3.74164	135.373	19.8714	-0.264096	0	-0.906928	-0.0286629	1.03703	0.152225
6.77	-7.85637	483.529	-60.2641	-0.245709	0	-0.337052	0.0125023	-0.769465	0.0959014	-3.73757	142.076	21.384	-0.266052	0	-0.906977	-0.0266924	1.01465	0.152717
6.78	-7.24446	465.89	-57.7082	-0.245469	0	-0.33711	0.0110239	-0.708943	0.0878145	-3.73413	150.313	23.0249	-0.268136	0	-0.906871	-0.0248832	1.00164	0.153431
6.79	-6.55697	447.516	-54.8803	-0.245323	0	-0.337215	0.00966087	-0.659358	0.08085920000000001	-3.72522	160.096	24.8028	-0.270258	0	-0.9066419999999999	-0.0232825	1.0006	0.155017
6.8	-5.83259	428.611	-51.8429	-0.245258	0	-0.337362	0.00844495	-0.620582	0.0750628	-3.7061	171.394	26.7235	-0.272328	0	-0.906326	-0.0219093	1.01323	0.157981
6.81	-5.10711	409.437	-48.6656	-0.245264	0	-0.337541	0.00738647	-0.5921729999999999	0.07038560000000001	-3.67486	184.132	28.7923	-0.274264	0	-0.905962	-0.0207606	1.04023	0.162658
6.82	-4.40858	390.295	-45.4237	-0.245326	0	-0.337746	0.00647914	-0.573604	0.0667577	-3.63267	198.2	31.0156	-0.275999	0	-0.905583	-0.0198181	1.08128	0.169206
6.83	-3.7593	371.502	-42.1939	-0.245432	0	-0.337963	0.00571097	-0.56437	0.0640992	-3.58278	213.456	33.401	-0.277479	0	-0.905223	-0.0190542	1.13522	0.177636
6.84	-3.18026	353.368	-39.0498	-0.245563	0	-0.338182	0.00507561	-0.563966	0.0623224	-3.52852	229.734	35.9547	-0.278671	0	-0.904907	-0.0184297	1.19992	0.187794
6.85	-2.69269	336.19	-36.0591	-0.245698	0	-0.338386	0.00458123	-0.571979	0.0613494	-3.47305	246.855	38.6819	-0.279552	0	-0.904657	-0.017904	1.27257	0.19941
6.86	-2.31693	320.232	-33.2828	-0.24581	0	-0.338558	0.00425605	-0.588245	0.0611382	-3.42163	264.638	41.5856	-0.280113	0	-0.904484	-0.0174538	1.34992	0.212129
6.87	-2.07019	305.721	-30.7739	-0.245868	0	-0.338677	0.00415126	-0.613046	0.0617093	-3.38412	282.911	44.6657	-0.280351	0	-0.904396	-0.0170868	1.42845	0.225523
6.88	-1.96487	292.824	-28.5746	-0.245839	0	-0.338725	0.00434286	-0.647216	0.0631572	-3.37605	301.523	47.9191	-0.280274	0	-0.904396	-0.0168449	1.50446	0.239094
6.89	-2.00877	281.643	-26.7129	-0.24569	0	-0.338681	0.00493557	-0.691999	0.0656337	-3.4161	320.34	51.3393	-0.279893	0	-0.904485	-0.0167891	1.57437	0.252317
6.9	-2.20646	272.21	-25.2008	-0.245393	0	-0.338532	0.00606917	-0.74875	0.0693183	-3.52034	339.243	54.9166	-0.279226	0	-0.904657	-0.0169652	1.63487	0.264653
6.91	-2.56002	264.489	-24.0339	-0.244921	0	-0.338271	0.007923919999999999	-0.8186600000000001	0.07439080000000001	-3.69911	358.121	58.6349	-0.278296	0	-0.904906	-0.0173835	1.68294	0.275547
6.92	-3.06852	258.386	-23.1895	-0.244259	0	-0.3379	0.0107187	-0.902571	0.08100350000000001	-3.9583	376.867	62.4682	-0.277127	0	-0.90522	-0.018023	1.71596	0.28443
6.93	-3.72667	253.754	-22.6286	-0.243397	0	-0.337432	0.0146983	-1.00083	0.089249	-4.3006	395.364	66.3798	-0.275744	0	-0.905589	-0.0188403	1.73203	0.2908
6.94	-4.52365	250.406	-22.2993	-0.242335	0	-0.336889	0.0201103	-1.1132	0.09913379999999999	-4.72584	413.476	70.3232	-0.274176	0	-0.905998	-0.0197764	1.73028	0.294284
6.95	-5.44289	248.128	-22.1437	-0.241081	0	-0.336298	0.0271755	-1.23886	0.11056	-5.23029	431.04	74.24339999999999	-0.272456	0	-0.906435	-0.020763	1.71113	0.294728
6.96	-6.46299	246.692	-22.1029	-0.239654	0	-0.335686	0.0360594	-1.37639	0.12332	-5.80459	447.874	78.0787	-0.270616	0	-0.906884	-0.0217262	1.67637	0.292244
6.97	-7.55744	245.864	-22.1206	-0.238078	0	-0.33508	0.0468401	-1.52384	0.137101	-6.43212	463.787	81.765	-0.268694	0	-0.907331	-0.0225935	1.6291	0.287208
6.98	-8.69332	245.409	-22.1443	-0.236389	0	-0.334501	0.0594659	-1.6787	0.151476	-7.08918	478.604	85.2411	-0.266729	0	-0.907764	-0.0233028	1.57322	0.280196
6.99	-9.83165	245.103	-22.1284	-0.234623	0	-0.333971	0.07372670000000001	-1.83801	0.165939	-7.74888	492.196	88.4547	-0.26476	0	-0.908172	-0.0238184	1.51291	0.271891
7	-10.9346	244.752	-22.0369	-0.232822	0	-0.333503	0.0892893	-1.99858	0.179948	-8.386010000000001	504.479	91.36669999999999	-0.262826	0	-0.908547	-0.0241377	1.45205	0.262983
7.01	-11.9744	244.206	-21.8476	-0.231021	0	-0.333109	0.105778	-2.15722	0.192994	-8.97977	515.413	93.9507	-0.260961	0	-0.90888	-0.0242822	1.39373	0.254052
7.02	-12.9362	243.377	-21.5543	-0.229252	0	-0.332792	0.122823	-2.31075	0.204649	-9.51582	524.978	96.1889	-0.259192	0	-0.909169	-0.0242858	1.33982	0.245489
7.03	-13.8153	242.24	-21.1685	-0.227548	0	-0.332552	0.140063	-2.4559	0.214613	-9.988350000000001	533.154	98.0677	-0.257535	0	-0.9094100000000001	-0.0241888	1.29114	0.237491
7.04	-14.6135	240.835	-20.7195	-0.225942	0	-0.332387	0.157111	-2.58923	0.222756	-10.4015	539.925	99.5744	-0.255998	0	-0.909602	-0.0240354	1.24763	0.230092
7.05	-15.3352	239.251	-20.2506	-0.224477	0	-0.332291	0.173513	-2.70705	0.229129	-10.7681	545.285	100.699	-0.254578	0	-0.9097460000000001	-0.02387	1.20875	0.223222
7.06	-15.9841	237.612	-19.8116	-0.223196	0	-0.332258	0.188733	-2.80562	0.233926	-11.1053	549.255	101.438	-0.25327	0	-0.909842	-0.0237342	1.17387	0.216792
7.07	-16.5613	236.061	-19.453	-0.222147	0	-0.332285	0.202151	-2.8814	0.237447	-11.4303	551.89	101.796	-0.252071	0	-0.909891	-0.0236599	1.14237	0.210711
7.08	-17.0644	234.743	-19.222	-0.221377	0	-0.332365	0.213092	-2.93137	0.240036	-11.7567	553.288	101.792	-0.250971	0	-0.909895	-0.0236679	1.11385	0.204922
7.09	-17.4876	233.801	-19.1585	-0.220931	0	-0.332494	0.220907	-2.95342	0.242015	-12.0919	553.585	101.45	-0.249971	0	-0.909853	-0.0237692	1.08819	0.199421
7.1	-17.825	233.351	-19.2909	-0.220847	0	-0.332668	0.225086	-2.94665	0.243598	-12.4372	552.944	100.803	-0.249074	0	-0.909772	-0.0239674	1.06557	0.194256
7.11	-18.0727	233.48	-19.6331	-0.221144	0	-0.332885	0.225377	-2.91164	0.244836	-12.7885	551.538	99.8937	-0.248284	0	-0.909652	-0.0242607	1.0463	0.189505
7.12	-18.228	234.237	-20.1834	-0.221832	0	-0.333138	0.22182	-2.85048	0.245616	-13.14	549.535	98.76730000000001	-0.24761	0	-0.909498	-0.0246475	1.0308	0.185264
7.13	-18.2872	235.63	-20.925	-0.222898	0	-0.333426	0.214726	-2.76673	0.245698	-13.487	547.076	97.4739	-0.247057	0	-0.909316	-0.02513	1.01935	0.181621
7.14	-18.2453	237.626	-21.8282	-0.224322	0	-0.333748	0.204627	-2.66506	0.24481	-13.8257	544.2670000000001	96.0621	-0.246637	0	-0.9091089999999999	-0.025708	1.01202	0.17862
7.15	-18.0996	240.168	-22.8536	-0.226068	0	-0.334102	0.192232	-2.55077	0.242723	-14.151	541.176	94.5744	-0.246356	0	-0.908884	-0.0263733	1.00859	0.176259
7.16	-17.8522	243.17	-23.9551	-0.228097	0	-0.334489	0.178337	-2.42918	0.239303	-14.4566	537.836	93.047	-0.246226	0	-0.908643	-0.0271136	1.00872	0.174511
7.17	-17.5105	246.53	-25.0844	-0.230356	0	-0.334907	0.16372	-2.30501	0.234535	-14.7364	534.27	91.5094	-0.24626	0	-0.9083909999999999	-0.0279136	1.01201	0.173336
7.18	-17.0871	250.129	-26.195	-0.232799	0	-0.335356	0.149056	-2.18195	0.228507	-14.9824	530.491	89.9864	-0.246472	0	-0.908128	-0.0287548	1.01814	0.172706
7.19	-16.5976	253.838	-27.2465	-0.235373	0	-0.335831	0.134858	-2.06247	0.221382	-15.1837	526.519	88.4995	-0.246883	0	-0.907855	-0.0296156	1.02697	0.172617
7.2	-16.0588	257.521	-28.2061	-0.238037	0	-0.336329	0.121468	-1.94787	0.213349	-15.3282	522.373	87.0668	-0.247516	0	-0.907569	-0.0304756	1.03859	0.173107
7.21	-15.4859	261.047	-29.0478	-0.24076	0	-0.336848	0.109057	-1.83839	0.204565	-15.4028	518.069	85.7002	-0.248399	0	-0.907267	-0.0313196	1.05342	0.17426
7.22	-14.8916	264.29	-29.7506	-0.243521	0	-0.337386	0.0976679	-1.73337	0.195122	-15.3916	513.616	84.4027	-0.249559	0	-0.906941	-0.0321297	1.07216	0.176189
7.23	-14.2855	267.141	-30.2975	-0.246313	0	-0.337948	0.0872525	-1.63164	0.185051	-15.2768	509.015	83.1665	-0.251029	0	-0.906579	-0.0328828	1.09564	0.179013
7.24	-13.6732	269.502	-30.6748	-0.249137	0	-0.338536	0.0777108	-1.5317	0.174338	-15.0419	504.276	81.9755	-0.252839	0	-0.9061709999999999	-0.0335506	1.12478	0.182845
7.25	-13.0572	271.289	-30.8717	-0.251996	0	-0.339155	0.0689138	-1.43182	0.162936	-14.672	499.423	80.80840000000001	-0.255019	0	-0.905701	-0.0340882	1.16033	0.187746
7.26	-12.4379	272.429	-30.8798	-0.254893	0	-0.33981	0.0607367	-1.33032	0.150792	-14.1522	494.507	79.6438	-0.257597	0	-0.905157	-0.0344174	1.20262	0.19369
7.27	-11.8176	272.859	-30.6929	-0.25782	0	-0.340502	0.0530833	-1.22565	0.137869	-13.4668	489.608	78.4657	-0.260592	0	-0.904527	-0.0344163	1.25126	0.20053
7.28	-11.2034	272.526	-30.3061	-0.26076	0	-0.34123	0.0459019	-1.11658	0.124168	-12.6026	484.829	77.26649999999999	-0.264007	0	-0.9038040000000001	-0.0339227	1.30502	0.207979
7.29	-10.6074	271.382	-29.7155	-0.263689	0	-0.341994	0.0391714	-1.00217	0.109734	-11.5515	480.276	76.0489	-0.267829	0	-0.902988	-0.0327491	1.36161	0.215603
7.3	-10.0429	269.389	-28.9178	-0.266576	0	-0.342789	0.0328758	-0.881852	0.0946631	-10.3139	476.033	74.8223	-0.272016	0	-0.902084	-0.0307208	1.41791	0.222865
7.31	-9.51803	266.529	-27.9125	-0.269393	0	-0.343614	0.0269836	-0.755607	0.07913190000000001	-8.90016	472.138	73.5981	-0.276508	0	-0.901104	-0.0277184	1.47041	0.229212
7.32	-9.030570000000001	262.805	-26.7059	-0.272117	0	-0.34447	0.0214438	-0.624051	0.0634154	-7.3306	468.577	72.3873	-0.281223	0	-0.900065	-0.023708	1.51543	0.234109
7.33	-8.567360000000001	258.255	-25.3133	-0.274733	0	-0.345349	0.016205	-0.488483	0.0478796	-5.63552	465.29	71.2003	-0.286064	0	-0.898989	-0.018764	1.54923	0.237069
7.34	-8.108750000000001	252.955	-23.7612	-0.277229	0	-0.34625	0.0112463	-0.350832	0.0329552	-3.85646	462.185	70.0489	-0.290933	0	-0.8979	-0.0130863	1.56835	0.237699
7.35	-7.63452	247.022	-22.0867	-0.279596	0	-0.347163	0.00659661	-0.21344	0.0190841	-2.04478	459.151	68.9474	-0.295734	0	-0.89682	-0.00699165	1.56996	0.235749
7.36	-7.12484	240.612	-20.3353	-0.281829	0	-0.348077	0.00233375	-0.07881299999999999	0.00666085	-0.256617	456.071	67.913	-0.300377	0	-0.895775	-0.000873353	1.55216	0.23113
